<svg width="60" height="60" viewBox="0 0 60 60" fill="none" xmlns="http://www.w3.org/2000/svg">
<rect width="60" height="60" fill="#EDEDED"/>
<path d="M31.717 11.6839C30.2046 12.8484 25.4368 17.2032 24.8031 33.0071C24.1695 48.8111 39.72 45.2218 39.72 45.2218C39.72 45.2218 44.6837 35.6564 46.2826 29.3445C47.8816 23.0326 39.4444 11.4461 37.5322 10.6568C35.6201 9.8674 35.0311 7.5859 33.7326 7.60733C32.4342 7.62875 33.2293 10.5195 31.717 11.6839Z" fill="#C2366E"/>
<path d="M16.17 14C16.17 14 14.7761 30.1646 19.9715 36.8059C25.167 43.4471 40.3732 44.8255 39.993 40.5651C39.6128 36.3046 38.3457 26.9066 31.3762 24.4005C24.2799 15.3784 17.3008 14.5327 16.17 14Z" fill="#7F2153"/>
<path d="M22.6866 48C27.7861 48 28.408 47.8642 31.0199 46.9135C33.6318 45.9628 35 41.7525 35 41.7525L29.403 34.8258C29.403 34.8258 25.4229 29.0351 19.4527 31.702C13.4826 34.369 16.3755 33.9949 10 32.9244L13.1095 40.2585C13.1095 40.2585 17.5871 48 22.6866 48Z" fill="#48113D"/>
<path d="M44.5 42.5C44.5 47.5765 40.5909 51.5 36 51.5C31.4091 51.5 27.5 47.5765 27.5 42.5C27.5 37.4235 31.4091 33.5 36 33.5C40.5909 33.5 44.5 37.4235 44.5 42.5Z" fill="url(#paint0_linear_5_111)" stroke="#F5F5F5" stroke-width="5"/>
<defs>
<linearGradient id="paint0_linear_5_111" x1="25" y1="31" x2="47.1527" y2="61.8519" gradientUnits="userSpaceOnUse">
<stop stop-color="#3E0423"/>
<stop offset="1" stop-color="#3E0423"/>
</linearGradient>
</defs>
</svg>
